<svg id="fenix" xmlns="http://www.w3.org/2000/svg" xmlns:xlink="http://www.w3.org/1999/xlink" viewBox="0 0 1047.93 909.43"><defs><style>.cls-1{fill:#f45c00;}.cls-2{fill:#ffcc4d;}.cls-3{fill:#6d0601;}.cls-4{fill:#f8cb3c;}.cls-5{clip-path:url(#clip-path);}.cls-6{fill:#f97126;}.cls-7{fill:#ba4606;}.cls-8{clip-path:url(#clip-path-2);}.cls-9{clip-path:url(#clip-path-3);}.cls-10{fill:#ffdc7b;}.cls-11{fill:#a53b00;}</style><clipPath id="clip-path" transform="translate(-22.79 -39.05)"><path class="cls-1" d="M399.65,302.6s-57.87,17.52-27.79,74.84c17.08,2,47.16,18.29,54.07,29.67s37.81,11.39,37.81,11.39,7.31-54.07,67.48-81.31,62.61-55,62.61-55,3.25,37.13-26,57.05c0,0,71.55-20.42,72.77-83,0,0,16.66,18.35,4.06,51.68,88.62-58.54,91.88-127.24,91.88-127.24,23.21,24.08,35.74,53.46,10.57,101.49,80.08-51.29,140.49-108.89,170.33-176.29,16.28,62,7.11,128.84-100.82,214.64,31-11.75,63.16-34.12,96.76-69.11,1.38,11-1.77,23.9-18.7,42.28,53.22-26.88,85.34-76.59,105.69-139,4.36,83.43.77,166.26-230.09,231.72,75.92-4.8,146.67-15.3,202.45-42.28C956.44,381,907.45,413.65,760.5,433.54q89.36,10.14,174.81-4.07c-24.68,27.89-64.55,48.86-148.79,49.6A234.64,234.64,0,0,0,891.4,491.26c-29.17,30.33-78.36,47.52-190.25,23.58l104.07,39c-32.7,12.66-75.58,16.54-148.79-5.69,20.89,12.68,41.78,25.36,78.05,29.27-27.4,9.28-60.6,8.28-105.69-13.82C642.72,581.45,657,599,682.2,608.34c-28.05-1.46-60.63-8.15-112.77-37.4,23.67,23.63,45.45,47.24,51.23,70.74-21.5-6.66-47.13-22.94-79.68-55.29,15.24,31.32,27.43,63.24,26,75.62-17.45-7-32.31-22.1-44.45-45.53,2.73,24.95,5,49,1.35,60.43-16.43-21.41-29.5-47.88-38.3-80.76.57,14.22-.47,26.17-4.79,34.15-5.35-8-9.32-18.56-12.5-30.7-7.22,9.81-15.14,17.41-24.09,21.75.84-5.19-4.92-7.7-13.82-8.94-4.82-6.26-6.93-15-7.86-24.93-13.75,31.15-33,22.83-53.12,8.67l-41.73-66.94-6.51-181,37.95-45.53Z"/></clipPath><clipPath id="clip-path-2" transform="translate(-22.79 -39.05)"><path class="cls-1" d="M394.42,254.06a102.7,102.7,0,0,0-25-26.23c-15.85-11.38-30.08-28.86-30.08-32.92s-2.44,12.6,0,20.32-37.4-13.45-39-20.95-3.66,14,18.7,27.46c0,0-39.84,5.69-65.45-.41,0,0,8.54,13,35.37,17.48,0,0-40.25,6.1-48,2,0,0,4.47,10.17,35,16.67,0,0,.41,6.51-35,8.13,0,0,0,8.95,28,10.57,0,0-1.63,7-28,6,0,0,3.25,11.93,45.94,8.68,0,0-16.26,12.45-34.15,19.43,0,0,.81,5.21,25.2,0,0,0-.81,10.24-26,24.47,0,0,0,2.44,14.22,4.07,0,0-22.35,17.48-36.18,25.2,0,0,6.91,2,27.24-2.84,0,0-32.52,37.4-48.78,45.53,0,0,6.1,3.66,23.58,0,0,0-42.55,65.58,36.58,144.72,0,0,1.63-1.08,1.63-11.92,0,0,6.5,26.56,99.19,56.64,0,0-72.08-283.83,30.23-293.55L386.5,282.17l13.15-14.5Z"/></clipPath><clipPath id="clip-path-3" transform="translate(-22.79 -39.05)"><path class="cls-2" d="M393.41,283.33s16.26,10.36,20.12,26.62c-1.63,3.26-23.17-18.49-52.24-22.56-5.49-2,1.22-6.3,1.22-6.3s36.59-11.59,31.91-27c0,0,35,0,45.74,37.8C440.16,293.9,421.66,275.6,393.41,283.33Z"/></clipPath></defs><path class="cls-3" d="M358.58,568.23c-35.11,42.39-83.16,67.71-154.48,62.34,8,6.85,17,13.17,42.82,10.3-70.14,37.4-118.85,8.39-162.61-36,12.68,29.86,17.36,60.92,98.11,80.67-30.58,10.15-67.21,5.77-108.14-8.94,32.58,19.73,63.8,41.09,128.47,22C181.09,719.34,156,738.26,91.36,736c39,1.1,76.35,8.47,122-16.87C161.54,739.46,115.69,763.06,93,799.41c17-18.45,36-32.47,61-33.33q80.7,1.17,125.21-57.73c-25.13,18-51.14,35.18-62.74,67.48,55.24-13.94,100.86-32.23,116.13-64.23,1.23,12.75.48,26.89-17.14,52.85,11.1-5.12,21.71-14.81,31.64-30.89-1.17,36,5.91,69.28,39.44,93.5-5.77-10.14-5.07-18.33,0-25.21,35.95,74.5,82,129.75,149.6,143.91-47.3-27.83-69.33-53.84-77.65-78.86,150.12,91.29,314.42,104.4,491.49,47.15-39.26,9.45-77.48,10.15-113.82-4.87,47.42-.59,91.22-19.53,130.09-63.42-49.1,21-102.53,33.81-162.62,34.15,36-10.27,70.31-31.68,102.45-68.3C780.91,882,680.44,890.67,546.67,842.5c56.45,4.94,109.14-3.87,157.73-27.64-111.63,23.56-191.76-21.24-252.86-107.32,16.12,24.9,35.29,47.85,96.75,43.9-33.5-3-62.53-27.66-89.84-60.76,14.12,15.93,28.53,30.81,45.94,34.74-20.07-17.55-34.93-39.18-45.94-63.82,4.79,9,10,17.7,22.77,19.92-15.82-20.67-25-46.21-24.39-78.87L447.88,560S394.22,555.5,393,555.5,358.58,568.23,358.58,568.23Z" transform="translate(-22.79 -39.05)"/><path class="cls-4" d="M362.92,586.8c3.49,14.58-12.6,33.71-48,57.32-18.09,14.72-27.23,28.4-6.1,38.62-.86-16.42,6.07-23.91,18.29-25.34,0,0-32.25,50.14,9.76,44.17-15.29-19.85-1.36-56,23.85-64l31.15-5.42c-3.06-13.49,5.69-23.33,16.55-32.52l-47.7-12.87h2.17" transform="translate(-22.79 -39.05)"/><path class="cls-4" d="M430.4,612.41s-10.6,33.73-28.73,24.39c-39.94-20.58-58.43-10-37.4,18.43,1.47-14.49,8.57-16.53,20.87-7.05-25.3,22.34-47.91,45.12-46,72C346.69,725,353,722,358,711.4c-5.17,4.61-8.85,5.7-10.16,1.22,4-17.59,15.88-29.33,32.11-37.81-17.28,31.71,3.46,48.79,14,55.7-20.94-45.94,7-75.6,14-78.67,1.14,5.69-1,11.81-8.74,18.7,6.78,3.07,14-3.31,21.75-20.12,6.61-3.44,11.48-11,15.25-21.34,7.26-5,10.66-10.61,10.77-16.67l-13.82-5.69-2.85,5.69" transform="translate(-22.79 -39.05)"/><path class="cls-3" d="M271.86,277.16c-32.31-27.92-58.18-49.46-63.42-107.32-13.73,10.47-25.78,23.09-15.72,64C142.56,183.56,96.84,134.18,84.31,75.52c-7.48,40.34,1,86.31,36.86,142-13.46-5.6-28.6-19.18-45.53-41.2,1,7.46,2.89,14.78,7.59,21.68-29.87-27.38-54-60.64-60.44-112.2-.32,74.54,39.61,130.67,108.14,173.72a444.49,444.49,0,0,0-80.77-26.28c16.51,21.64,34.67,39.87,56.92,49.59-7.33.76-18-2-31.44-7.86a123.13,123.13,0,0,0,54.47,42.55,80.9,80.9,0,0,0-22.49-3.79s15.18,19.38,30.08,26.15c0,0-14.23-5-20.87-5.42,18.7,19.54,40.5,36.77,76.57,43.36-20.66-4.09-39.56-6.45-54.48-4.87,22.33,17.21,47.34,27.95,76.12,29.56l1.12,3.36a53.59,53.59,0,0,1-22.36,2.44c6.07,9.32,15.95,17,34.15,21.14l107.73-92.69L304,291.25Z" transform="translate(-22.79 -39.05)"/><g id="asa_dirieta" data-name="asa dirieta"><path class="cls-1" d="M399.65,302.6s-57.87,17.52-27.79,74.84c17.08,2,47.16,18.29,54.07,29.67s37.81,11.39,37.81,11.39,7.31-54.07,67.48-81.31,62.61-55,62.61-55,3.25,37.13-26,57.05c0,0,71.55-20.42,72.77-83,0,0,16.66,18.35,4.06,51.68,88.62-58.54,91.88-127.24,91.88-127.24,23.21,24.08,35.74,53.46,10.57,101.49,80.08-51.29,140.49-108.89,170.33-176.29,16.28,62,7.11,128.84-100.82,214.64,31-11.75,63.16-34.12,96.76-69.11,1.38,11-1.77,23.9-18.7,42.28,53.22-26.88,85.34-76.59,105.69-139,4.36,83.43.77,166.26-230.09,231.72,75.92-4.8,146.67-15.3,202.45-42.28C956.44,381,907.45,413.65,760.5,433.54q89.36,10.14,174.81-4.07c-24.68,27.89-64.55,48.86-148.79,49.6A234.64,234.64,0,0,0,891.4,491.26c-29.17,30.33-78.36,47.52-190.25,23.58l104.07,39c-32.7,12.66-75.58,16.54-148.79-5.69,20.89,12.68,41.78,25.36,78.05,29.27-27.4,9.28-60.6,8.28-105.69-13.82C642.72,581.45,657,599,682.2,608.34c-28.05-1.46-60.63-8.15-112.77-37.4,23.67,23.63,45.45,47.24,51.23,70.74-21.5-6.66-47.13-22.94-79.68-55.29,15.24,31.32,27.43,63.24,26,75.62-17.45-7-32.31-22.1-44.45-45.53,2.73,24.95,5,49,1.35,60.43-16.43-21.41-29.5-47.88-38.3-80.76.57,14.22-.47,26.17-4.79,34.15-5.35-8-9.32-18.56-12.5-30.7-7.22,9.81-15.14,17.41-24.09,21.75.84-5.19-4.92-7.7-13.82-8.94-4.82-6.26-6.93-15-7.86-24.93-13.75,31.15-33,22.83-53.12,8.67l-41.73-66.94-6.51-181,37.95-45.53Z" transform="translate(-22.79 -39.05)"/><g class="cls-5"><path class="cls-6" d="M463.74,418.5c29.11-38.41,59.85-59.43,92.52-59.78,106.76,57.08,347.9-49,386.89-166V39.05l-368.85,59L447.07,370.2Z" transform="translate(-22.79 -39.05)"/><path class="cls-7" d="M822.48,315.79c-23.15,36-71.29,75.32-134.05,78.65,26.56,11.41,55.43,16.34,89.14,7.7-36.25,31.36-78.89,49.39-133.71,42,30.2,28.75,65.63,45.82,108.85,45.43,3.27,15.48-142,20.11-150.85,5.14,8.73,15.42,18.65,30.07,42,36-31.42,9.42-63.45-1-96-28.28-2,17.2,1.17,44,21.43,62.57-24.48,4.47-45.32-8.73-63.43-35.14-6.46,19.82-8.72,40.77,6.14,66.29-22.51,1.67-41.82-10.19-56.71-40.65-7.67,21.68-10.94,46.47-8.22,75.5l97.36,75.43L1024,582.14l46.71-346.28-69.5-105.43L897.57,252.5Z" transform="translate(-22.79 -39.05)"/></g></g><g id="asa_esquerda" data-name="asa esquerda"><path class="cls-1" d="M394.42,254.06a102.7,102.7,0,0,0-25-26.23c-15.85-11.38-30.08-28.86-30.08-32.92s-2.44,12.6,0,20.32-37.4-13.45-39-20.95-3.66,14,18.7,27.46c0,0-39.84,5.69-65.45-.41,0,0,8.54,13,35.37,17.48,0,0-40.25,6.1-48,2,0,0,4.47,10.17,35,16.67,0,0,.41,6.51-35,8.13,0,0,0,8.95,28,10.57,0,0-1.63,7-28,6,0,0,3.25,11.93,45.94,8.68,0,0-16.26,12.45-34.15,19.43,0,0,.81,5.21,25.2,0,0,0-.81,10.24-26,24.47,0,0,0,2.44,14.22,4.07,0,0-22.35,17.48-36.18,25.2,0,0,6.91,2,27.24-2.84,0,0-32.52,37.4-48.78,45.53,0,0,6.1,3.66,23.58,0,0,0-42.55,65.58,36.58,144.72,0,0,1.63-1.08,1.63-11.92,0,0,6.5,26.56,99.19,56.64,0,0-72.08-283.83,30.23-293.55L386.5,282.17l13.15-14.5Z" transform="translate(-22.79 -39.05)"/><g class="cls-8"><path class="cls-6" d="M390.71,269.14s-64.57-51.29-108,0-93.14,20.43-93.14,20.43L257,183.29,323.86,177l83.43-22.86L429,252.5Z" transform="translate(-22.79 -39.05)"/></g></g><g id="Camada_2" data-name="Camada 2"><path class="cls-3" d="M373.69,268.89c-16.89,10.18-31.4,24.64-41.12,47.68,3.54-14.95,6.68-29.94,23-43.6-9.55,5.11-18.68,11.81-26.15,24.74,2.65-10.68,6.09-21.25,15.71-31Z" transform="translate(-22.79 -39.05)"/></g><path class="cls-2" d="M393.41,283.33s16.26,10.36,20.12,26.62c-1.63,3.26-23.17-18.49-52.24-22.56-5.49-2,1.22-6.3,1.22-6.3s36.59-11.59,31.91-27c0,0,35,0,45.74,37.8C440.16,293.9,421.66,275.6,393.41,283.33Z" transform="translate(-22.79 -39.05)"/><g class="cls-9"><path class="cls-10" d="M440.16,291.86c-17.24-21.61-32-33.69-47.45-32.65L394,247.86l52.93,4.64,15.21,31.57Z" transform="translate(-22.79 -39.05)"/></g><path class="cls-11" d="M373.69,268.89s-12-20.93-38-8.94C335.68,260,353.36,282.92,373.69,268.89Z" transform="translate(-22.79 -39.05)"/><path d="M350.61,261s3.91,11,17.46,6.71Q362.85,260.62,350.61,261Z" transform="translate(-22.79 -39.05)"/></svg>